<svg width="94" height="18" viewBox="0 0 94 18" fill="none" xmlns="http://www.w3.org/2000/svg">
<path d="M33.6202 8.65897C33.6202 8.99695 33.597 9.30112 33.5507 9.57151H26.5129C26.5708 10.2475 26.8141 10.777 27.2427 11.16C27.6713 11.543 28.1985 11.7346 28.824 11.7346C29.7277 11.7346 30.3706 11.3571 30.7529 10.6023H33.3769C33.0989 11.5036 32.5659 12.2472 31.7782 12.833C30.9904 13.4075 30.0231 13.6948 28.8762 13.6948C27.9494 13.6948 27.1153 13.4977 26.3738 13.1034C25.644 12.6978 25.0705 12.1289 24.6535 11.3966C24.248 10.6643 24.0453 9.81936 24.0453 8.86176C24.0453 7.89289 24.248 7.04231 24.6535 6.31003C25.059 5.57775 25.6266 5.01446 26.3565 4.62015C27.0863 4.22584 27.9262 4.02869 28.8762 4.02869C29.7914 4.02869 30.6081 4.22021 31.3264 4.60325C32.0562 4.98629 32.6181 5.53269 33.012 6.24244C33.4174 6.94092 33.6202 7.74643 33.6202 8.65897ZM31.1005 7.98302C31.0889 7.37466 30.863 6.89023 30.4227 6.52972C29.9825 6.15794 29.4438 5.97206 28.8067 5.97206C28.2042 5.97206 27.6945 6.15231 27.2775 6.51282C26.872 6.86206 26.6229 7.35213 26.5302 7.98302H31.1005Z" fill="white"/>
<path d="M38.5692 11.3628L41.0021 4.18078H43.5913L40.0289 13.5427H37.0748L33.5298 4.18078H36.1364L38.5692 11.3628Z" fill="white"/>
<path d="M53.0662 8.65897C53.0662 8.99695 53.043 9.30112 52.9967 9.57151H45.9588C46.0168 10.2475 46.2601 10.777 46.6887 11.16C47.1173 11.543 47.6444 11.7346 48.27 11.7346C49.1736 11.7346 49.8166 11.3571 50.1989 10.6023H52.8229C52.5448 11.5036 52.0119 12.2472 51.2242 12.833C50.4364 13.4075 49.4691 13.6948 48.3222 13.6948C47.3954 13.6948 46.5613 13.4977 45.8198 13.1034C45.09 12.6978 44.5165 12.1289 44.0995 11.3966C43.694 10.6643 43.4913 9.81936 43.4913 8.86176C43.4913 7.89289 43.694 7.04231 44.0995 6.31003C44.5049 5.57775 45.0726 5.01446 45.8025 4.62015C46.5323 4.22584 47.3722 4.02869 48.3222 4.02869C49.2374 4.02869 50.0541 4.22021 50.7724 4.60325C51.5022 4.98629 52.0641 5.53269 52.458 6.24244C52.8634 6.94092 53.0662 7.74643 53.0662 8.65897ZM50.5465 7.98302C50.5349 7.37466 50.309 6.89023 49.8687 6.52972C49.4285 6.15794 48.8898 5.97206 48.2527 5.97206C47.6502 5.97206 47.1405 6.15231 46.7235 6.51282C46.318 6.86206 46.0689 7.35213 45.9762 7.98302H50.5465Z" fill="white"/>
<path d="M56.4339 5.63408C56.7467 5.13838 57.1522 4.74971 57.6503 4.46806C58.16 4.18641 58.7393 4.04559 59.388 4.04559V6.52972H58.7451C57.9805 6.52972 57.4012 6.70434 57.0073 7.05358C56.625 7.40282 56.4339 8.01118 56.4339 8.87865V13.5427H54.0011V4.18078H56.4339V5.63408Z" fill="white"/>
<path d="M63.8698 13.6948C63.082 13.6948 62.3753 13.5596 61.7498 13.2892C61.1242 13.0076 60.626 12.6302 60.2553 12.157C59.8962 11.6839 59.6992 11.16 59.6645 10.5854H62.1147C62.161 10.9459 62.3406 11.2445 62.6534 11.4811C62.9778 11.7177 63.3774 11.8359 63.8524 11.8359C64.3158 11.8359 64.675 11.7458 64.9298 11.5656C65.1963 11.3853 65.3295 11.1544 65.3295 10.8727C65.3295 10.5685 65.1673 10.3432 64.8429 10.1968C64.5301 10.039 64.0262 9.87005 63.3311 9.6898C62.6128 9.52081 62.022 9.34619 61.5586 9.16593C61.1068 8.98568 60.7129 8.70967 60.377 8.33789C60.0526 7.96612 59.8904 7.46478 59.8904 6.8339C59.8904 6.31566 60.041 5.8425 60.3422 5.41439C60.655 4.98629 61.0952 4.64831 61.6629 4.40046C62.2421 4.15261 62.9198 4.02869 63.696 4.02869C64.8429 4.02869 65.7581 4.31034 66.4416 4.87363C67.1251 5.42566 67.5017 6.17484 67.5712 7.12118H65.2426C65.2079 6.7494 65.0457 6.45649 64.756 6.24244C64.478 6.01712 64.1015 5.90446 63.6265 5.90446C63.1863 5.90446 62.8445 5.98332 62.6013 6.14104C62.3696 6.29877 62.2537 6.51845 62.2537 6.8001C62.2537 7.11554 62.4159 7.35776 62.7403 7.52675C63.0647 7.68447 63.5686 7.84782 64.2521 8.01681C64.9472 8.1858 65.5206 8.36042 65.9725 8.54068C66.4243 8.72093 66.8124 9.00258 67.1367 9.38562C67.4727 9.75739 67.6465 10.2531 67.6581 10.8727C67.6581 11.4135 67.5017 11.8979 67.1889 12.326C66.8877 12.7541 66.4474 13.0921 65.8682 13.3399C65.3005 13.5765 64.6344 13.6948 63.8698 13.6948Z" fill="white"/>
<path d="M74.236 4.04559C74.9658 4.04559 75.6146 4.20331 76.1822 4.51876C76.7499 4.82293 77.1901 5.2792 77.5029 5.88756C77.8273 6.48465 77.9895 7.20567 77.9895 8.05061V13.5427H75.5566V8.37169C75.5566 7.62814 75.3655 7.05921 74.9832 6.66491C74.6009 6.25933 74.0796 6.05655 73.4192 6.05655C72.7473 6.05655 72.2144 6.25933 71.8205 6.66491C71.4382 7.05921 71.2471 7.62814 71.2471 8.37169V13.5427H68.8142V1.0376H71.2471V5.3468C71.5599 4.94123 71.9769 4.62578 72.4982 4.40046C73.0195 4.16388 73.5988 4.04559 74.236 4.04559Z" fill="white"/>
<path d="M81.8949 4.18078V13.5427H79.4621V4.18078H81.8949Z" fill="white"/>
<path d="M85.8905 5.53269C86.2033 5.10458 86.632 4.74971 87.1765 4.46806C87.7325 4.17515 88.3639 4.02869 89.0706 4.02869C89.8931 4.02869 90.6345 4.22584 91.2949 4.62015C91.9668 5.01446 92.4939 5.57775 92.8762 6.31003C93.2701 7.03105 93.467 7.87036 93.467 8.82796C93.467 9.78556 93.2701 10.6361 92.8762 11.3797C92.4939 12.112 91.9668 12.6809 91.2949 13.0865C90.6345 13.492 89.8931 13.6948 89.0706 13.6948C88.3639 13.6948 87.7383 13.554 87.1938 13.2723C86.6609 12.9907 86.2265 12.6358 85.8905 12.2077V18.004H83.4577V4.18078H85.8905V5.53269ZM90.9821 8.82796C90.9821 8.26466 90.8605 7.78023 90.6172 7.37466C90.3855 6.95782 90.0727 6.64238 89.6788 6.42832C89.2965 6.21427 88.8794 6.10725 88.4276 6.10725C87.9874 6.10725 87.5704 6.2199 87.1765 6.44522C86.7942 6.65927 86.4814 6.97472 86.2381 7.39156C86.0064 7.80839 85.8905 8.29846 85.8905 8.86176C85.8905 9.42505 86.0064 9.91511 86.2381 10.332C86.4814 10.7488 86.7942 11.0699 87.1765 11.2952C87.5704 11.5092 87.9874 11.6163 88.4276 11.6163C88.8794 11.6163 89.2965 11.5036 89.6788 11.2783C90.0727 11.053 90.3855 10.7319 90.6172 10.3151C90.8605 9.89822 90.9821 9.40252 90.9821 8.82796Z" fill="white"/>
<path d="M79.4586 1.0376H81.8904V3.21051H79.4586V1.0376Z" fill="white"/>
<path d="M5.7936 2.58381C8.83279 3.82715 12.4191 3.24117 14.9426 0.825868C16.3694 -0.539763 18.3544 1.37117 16.955 2.8951C13.8339 6.29401 13.9357 11.2852 17.0532 14.6875C17.5735 15.2586 17.5434 16.1557 16.9856 16.6884C16.4274 17.2215 15.5496 17.1921 15.0291 16.6207C12.1514 13.4801 11.1833 9.41924 12.333 5.54809C10.629 6.07368 8.82914 6.18433 7.08477 5.88006C6.81096 4.72146 6.37726 3.62563 5.7936 2.58381Z" fill="white"/>
<path d="M12.3552 14.8439C9.31602 13.6005 5.72971 14.1865 3.20624 16.6018C1.77945 17.9674 -0.205596 16.0565 1.19378 14.5326C4.3149 11.1337 4.21312 6.14247 1.09558 2.74014C0.575343 2.16912 0.605424 1.27202 1.16324 0.739257C1.72137 0.206206 2.59919 0.235608 3.11971 0.806941C5.99741 3.94753 6.96552 8.00844 5.8158 11.8796C7.5198 11.354 9.31967 11.2433 11.064 11.5476C11.3379 12.7062 11.7716 13.802 12.3552 14.8439Z" fill="white"/>
</svg>
